<?xml version="1.0" encoding="UTF-8" standalone="no"?>
<!-- Created with Inkscape (http://www.inkscape.org/) -->

<svg
   width="1080"
   height="1920"
   viewBox="0 0 1080 1920"
   version="1.1"
   id="svg5"
   inkscape:version="1.1.1 (3bf5ae0, 2021-09-20)"
   sodipodi:docname="splash.svg"
   inkscape:export-filename="/home/art/SourceCode/Atman/splash.png"
   inkscape:export-xdpi="96"
   inkscape:export-ydpi="96"
   xmlns:inkscape="http://www.inkscape.org/namespaces/inkscape"
   xmlns:sodipodi="http://sodipodi.sourceforge.net/DTD/sodipodi-0.dtd"
   xmlns="http://www.w3.org/2000/svg"
   xmlns:svg="http://www.w3.org/2000/svg">
  <sodipodi:namedview
     id="namedview7"
     pagecolor="#ffffff"
     bordercolor="#666666"
     borderopacity="1.0"
     inkscape:pageshadow="2"
     inkscape:pageopacity="0.0"
     inkscape:pagecheckerboard="0"
     inkscape:document-units="px"
     showgrid="false"
     inkscape:zoom="0.5"
     inkscape:cx="532"
     inkscape:cy="843"
     inkscape:window-width="1848"
     inkscape:window-height="1016"
     inkscape:window-x="72"
     inkscape:window-y="27"
     inkscape:window-maximized="1"
     inkscape:current-layer="layer1" />
  <defs
     id="defs2">
    <filter
       id="e"
       color-interpolation-filters="sRGB"
       x="-0.011790249"
       y="-0.012217117"
       width="1.0235805"
       height="1.0244342">
      <feGaussianBlur
         stdDeviation="0.95064289"
         id="feGaussianBlur943" />
    </filter>
    <filter
       id="f"
       color-interpolation-filters="sRGB"
       x="-0.011998666"
       y="-0.012001294"
       width="1.0239973"
       height="1.0240026">
      <feGaussianBlur
         stdDeviation="1.5065625"
         id="feGaussianBlur946" />
    </filter>
    <filter
       id="g"
       color-interpolation-filters="sRGB"
       x="-0.011999608"
       y="-0.01200076"
       width="1.0239992"
       height="1.0240015">
      <feGaussianBlur
         stdDeviation="1.5110156"
         id="feGaussianBlur949" />
    </filter>
    <filter
       id="h"
       color-interpolation-filters="sRGB"
       x="-0.011634709"
       y="-0.012388859"
       width="1.0232694"
       height="1.0247777">
      <feGaussianBlur
         stdDeviation="0.98826929"
         id="feGaussianBlur952" />
    </filter>
  </defs>
  <g
     inkscape:label="Ebene 1"
     inkscape:groupmode="layer"
     id="layer1">
    <rect
       style="fill:#ffffff;stroke:none;stroke-width:0.797745;fill-opacity:1"
       id="rect880"
       width="1079.2023"
       height="1919.2023"
       x="0.39887261"
       y="0.39887261"
       inkscape:export-filename="/home/art/SourceCode/CancerHealing/splash.png"
       inkscape:export-xdpi="96"
       inkscape:export-ydpi="96" />
    <text
       xml:space="preserve"
       style="font-style:normal;font-variant:normal;font-weight:bold;font-stretch:normal;font-size:181.144px;line-height:1.25;font-family:sans-serif;-inkscape-font-specification:'sans-serif Bold';fill:#000000;fill-opacity:1;stroke:none;stroke-width:1.88692"
       x="148.08658"
       y="541.29596"
       id="text18484"
       transform="scale(1.0776563,0.92793966)"><tspan
         sodipodi:role="line"
         id="tspan18482"
         x="148.08658"
         y="541.29596"
         style="stroke-width:1.88692">ATMAN</tspan></text>
    <g
       transform="matrix(0.6362771,0,0,0.6362771,369.64744,250.83322)"
       id="g973">
      <g
         transform="matrix(1.4071,0,0,1.4071,-260.13,37.948)"
         id="g971">
        <path
           transform="matrix(0.78831,0,0,0.76396,90.82,244.98)"
           d="m 538.57,375.93 a 179.29,185 0 0 1 -179.29,185 179.29,185 0 0 1 -179.29,-185 179.29,185 0 0 1 179.29,-185 179.29,185 0 0 1 179.29,185 z"
           fill="#ffffff"
           id="path957" />
        <path
           d="m 374.05,373.13 c -87.84,0 -159.06,71.191 -159.06,159.03 0,87.84 71.222,159.06 159.06,159.06 87.838,0 159.06,-71.222 159.06,-159.06 0,-87.84 -71.222,-159.03 -159.06,-159.03 z m 0,17.719 c 78.056,0 141.34,63.257 141.34,141.31 0,78.056 -63.288,141.34 -141.34,141.34 -78.052,0 -141.34,-63.288 -141.34,-141.34 0,-78.056 63.288,-141.31 141.34,-141.31 z"
           fill="#ff6600"
           id="path959" />
        <path
           d="m 330.16,630.6 c -18.787,-3.2795 -38.67,-17.967 -47.78,-34.832 -7.7098,-14.924 -11.616,-30.903 -11.748,-48.053 -0.0831,-10.832 1.4351,-15.776 2.6259,-8.55 4.1087,22.502 16.656,48.622 35.812,58.749 15.357,7.7491 38.246,5.0069 49.14,-5.8871 5.1326,-5.1326 7.4992,-10.719 7.526,-17.763 -2.6184,-22.969 -22.536,-23.961 -39.257,-21.375 -2.3837,-8.434 -6.269,-22.151 -8.6747,-30.871 11.565,3.7635 34.411,1.7006 40.478,-8.5185 5.4821,-10.601 -3.0451,-20.473 -17.516,-20.277 -13.702,-1.1574 -28.088,8.4216 -36.752,14.958 -5.3047,-8.8591 -8.7261,-15.962 -13.757,-25.727 7.6103,-6.1143 16.843,-10.932 25.492,-13.912 12.764,-4.2835 31.866,-4.3624 41.342,-0.1707 17.026,8.9567 20.942,31.743 14.389,46.607 -3.3481,7.1493 -8.4008,13.506 -13.735,17.279 -2.1698,1.5349 -3.9547,3.1237 -3.9664,3.5307 -0.0366,1.2673 13.099,6.76 16.167,6.76 7.1619,0 13.339,-6.3253 21.217,-21.727 9.4763,-18.526 20.177,-27.862 34.595,-30.184 20.729,-3.338 40.606,13.359 47.513,39.911 0.9299,3.575 2.03,11.45 2.4447,17.5 1.6282,23.754 -3.4562,40.722 -16.028,53.49 -15.189,15.427 -36.451,17.338 -50.669,4.5542 -8.6115,-7.7425 -13.205,-19.788 -13.243,-34.73 -0.0194,-7.458 1.5728,-13.345 2.9247,-10.815 6.4486,19.833 20.942,26.524 39.649,19.88 8.0102,-2.997 18.313,-13.237 21.236,-21.106 5.6955,-15.334 4.4189,-33.222 -3.1507,-44.15 -15.867,-16.614 -30.947,5.3667 -36.151,14.08 -6.7174,11.359 -12.471,17.633 -19.178,20.915 -9.2702,4.7277 -14.661,0.7217 -24.348,3.3305 1.8613,4.847 4.1568,9.6473 5.5137,14.753 6.1502,23.565 -0.5758,45.105 -17.401,55.726 -8.7828,5.5443 -23.587,8.3703 -34.711,6.6261 z m 69.098,-144.14 c -18.456,-2.7525 -35.999,-20.386 -39.466,-39.67 -1.6636,-9.2531 -0.66061,-10.021 3.6398,-3.4248 4.3245,6.6327 11.402,13.154 19.449,17.354 12.814,5.7747 27.186,3.983 36.952,-0.8477 4.8229,-2.3906 11.075,-6.5749 14.623,-9.7872 l 6.1984,-5.6112 c 7.2228,9.2832 13.918,18.036 16.103,21.297 -14.637,14.63 -37.519,23.296 -57.5,20.69 z m -18.911,-45.143 18.128,-17.77 19.283,17.654 -18.679,18.328 z"
           fill="#ff6600"
           id="path961" />
        <path
           d="m 398.67,423.76 -18.125,17.781 1,1 18.125,-17.75 18.25,16.656 0.0312,-0.0312 -19.281,-17.656 z m -38.844,15.5 c -0.86396,0.0348 -0.77955,2.5451 0.15625,7.75 1.7068,9.4932 6.8539,18.573 13.812,25.688 -6.4551,-6.9514 -11.156,-15.617 -12.781,-24.656 -1.1078,-6.1613 -1.0369,-8.5632 0.40625,-7.5312 -0.70178,-0.83668 -1.2332,-1.2645 -1.5938,-1.25 z m 81.031,5.4375 -6.1875,5.625 c -3.5484,3.2123 -9.8021,7.3906 -14.625,9.7812 -9.7664,4.8307 -24.155,6.6185 -36.969,0.84375 -4.5268,-2.3628 -8.7483,-5.4682 -12.344,-8.9062 3.8071,3.838 8.4114,7.3154 13.375,9.9062 12.814,5.7747 27.171,3.987 36.938,-0.84375 4.8229,-2.3906 11.077,-6.569 14.625,-9.7812 l 6.0625,-5.5 c -0.29797,-0.3835 -0.57492,-0.73931 -0.875,-1.125 z m -103,20.812 c -7.5554,0.0312 -15.524,1.1082 -21.906,3.25 -8.6494,2.9798 -17.89,7.7919 -25.5,13.906 5.0307,9.7653 8.4453,16.891 13.75,25.75 0.0947,-0.0714 0.21647,-0.14662 0.3125,-0.21875 -4.8946,-8.2954 -8.2367,-15.193 -13.031,-24.5 7.6103,-6.1143 16.819,-10.926 25.469,-13.906 12.764,-4.2835 31.868,-4.3792 41.344,-0.1875 2.5499,1.3414 4.8106,2.9862 6.7812,4.875 -2.1966,-2.31 -4.7894,-4.3011 -7.7812,-5.875 -4.738,-2.0958 -11.882,-3.125 -19.438,-3.0938 z m 93.906,24.938 c -1.9184,-0.0308 -3.8691,0.0933 -5.8125,0.40625 -14.418,2.3218 -25.117,11.662 -34.594,30.188 -7.8783,15.402 -14.057,21.719 -21.219,21.719 -2.547,0 -12,-3.7708 -15.125,-5.7812 -0.002,0.0116 -0.031,0.0211 -0.0312,0.0312 -0.0366,1.2673 13.12,6.7812 16.188,6.7812 7.1619,0 13.34,-6.3168 21.219,-21.719 9.4763,-18.526 20.176,-27.866 34.594,-30.188 11.012,-1.7733 21.786,2.0845 30.5,10.094 -7.3797,-7.1966 -16.333,-11.38 -25.719,-11.531 z m -74.875,8.75 c 3.5168,3.7982 4.4205,9.065 1.5938,14.531 -6.0674,10.219 -28.904,12.295 -40.469,8.5312 2.4057,8.7204 6.2726,22.41 8.6562,30.844 0.23544,-0.0364 0.4821,-0.0588 0.71875,-0.0937 -2.3985,-8.4846 -6.0574,-21.349 -8.375,-29.75 11.565,3.7635 34.401,1.6878 40.469,-8.5312 3.0837,-5.9632 1.7523,-11.692 -2.5938,-15.531 z m 99.812,16.281 c 7.5137,10.936 8.7734,28.771 3.0938,44.062 -2.9227,7.869 -13.24,18.128 -21.25,21.125 -12.163,4.3199 -22.546,2.9954 -30.094,-3.9062 7.6196,7.7579 18.37,9.4252 31.094,4.9062 8.0102,-2.997 18.327,-13.225 21.25,-21.094 5.6955,-15.334 4.4134,-33.228 -3.1562,-44.156 -0.3165,-0.33139 -0.6217,-0.63641 -0.9375,-0.9375 z m -184.41,20.5 c -0.82987,-0.16035 -1.5259,4.5217 -1.4688,11.969 0.13153,17.15 4.0402,33.139 11.75,48.062 2.7725,5.1326 6.5665,10.031 11,14.5 -4.0025,-4.1934 -7.4378,-8.7566 -10,-13.5 -7.7098,-14.924 -11.587,-30.912 -11.719,-48.062 -0.0495,-6.4475 0.47779,-10.768 1.1562,-11.719 -0.23297,-0.80276 -0.49242,-1.2063 -0.71875,-1.25 z m 87.781,23.938 c 3.0172,3.3925 5.1386,8.1025 5.875,14.562 -0.0268,7.0448 -2.3987,12.649 -7.5312,17.781 -10.894,10.894 -33.799,13.624 -49.156,5.875 -3.9909,-2.1097 -7.6931,-4.898 -11.094,-8.2188 3.671,3.7598 7.7393,6.9316 12.125,9.25 15.357,7.7491 38.231,4.9878 49.125,-5.9062 5.1326,-5.1326 7.5045,-10.705 7.5312,-17.75 -0.81455,-7.1455 -3.3291,-12.148 -6.875,-15.594 z m 38.062,0.28125 c -1.1188,0.31332 -2.172,5.3466 -2.1562,11.406 0.0376,14.489 4.355,26.241 12.469,34 -7.461,-7.7536 -11.433,-19.125 -11.469,-33 -0.0153,-5.8816 0.98147,-10.774 2.0625,-11.344 -0.0553,-0.16487 -0.10204,-0.33328 -0.15625,-0.5 -0.25349,-0.47443 -0.49182,-0.6348 -0.75,-0.5625 z"
           filter="url(#e)"
           id="path963" />
        <path
           d="m 373.12,389.94 c -78.056,0 -141.34,63.257 -141.34,141.31 0,39.028 15.827,74.359 41.406,99.938 -25.043,-25.503 -40.469,-60.469 -40.469,-99.031 0,-78.056 63.288,-141.31 141.34,-141.31 37.808,0 72.135,14.856 97.5,39.031 -25.452,-24.705 -60.164,-39.938 -98.438,-39.938 z m 115.16,31.594 c 27.215,28.537 43.906,67.171 43.906,109.72 0,87.84 -71.222,159.06 -159.06,159.06 -43.738,0 -83.337,-17.675 -112.09,-46.25 28.828,29.109 68.832,47.156 113.03,47.156 87.84,0 159.06,-71.222 159.06,-159.06 0,-43.01 -17.103,-82.001 -44.844,-110.62 z"
           filter="url(#f)"
           id="path965" />
        <path
           d="m 373.41,372.92 c -87.84,0 -159.06,71.191 -159.06,159.03 0,44.383 18.178,84.521 47.5,113.38 -28.253,-28.711 -45.688,-68.105 -45.688,-111.56 0,-87.84 71.222,-159.03 159.06,-159.03 43.761,0 83.396,17.687 112.16,46.281 -28.897,-29.677 -69.275,-48.094 -113.97,-48.094 z m 100.84,60.031 c 25.041,25.495 40.5,60.44 40.5,99 0,78.056 -63.288,141.34 -141.34,141.34 -37.808,0 -72.167,-14.848 -97.531,-39.031 25.532,25.241 60.609,40.844 99.344,40.844 78.056,0 141.34,-63.288 141.34,-141.34 0,-39.495 -16.192,-75.173 -42.312,-100.81 z"
           fill="#ffffff"
           filter="url(#g)"
           opacity="0.78819"
           id="path967" />
        <path
           d="m 416.04,441.07 -17.938,17.594 -17.094,-16.625 -0.71875,0.6875 18.719,18.219 18.688,-18.344 -1.6562,-1.5312 z m -54.219,14.656 c 6.0393,16.155 21.36,29.737 37.375,32.125 19.981,2.6054 42.863,-6.058 57.5,-20.688 -0.30404,-0.45371 -0.87583,-1.222 -1.3438,-1.875 -14.652,14.378 -37.271,22.862 -57.062,20.281 -15.258,-2.2755 -29.896,-14.702 -36.469,-29.844 z m -71.438,27.969 c -0.0632,0.0504 -0.1245,0.10563 -0.1875,0.15625 5.0307,9.7653 8.4453,16.891 13.75,25.75 8.664,-6.5362 23.048,-16.126 36.75,-14.969 8.6614,-0.1172 15.202,3.3746 17.875,8.4688 -1.7535,-6.3001 -8.8814,-10.884 -18.781,-10.75 -13.702,-1.1574 -28.086,8.4013 -36.75,14.938 -4.8961,-8.1767 -8.2228,-14.935 -12.656,-23.594 z m 80.812,1.75 c 3.3738,9.4812 2.987,20.323 -0.6875,28.656 -3.3481,7.1493 -8.4157,13.508 -13.75,17.281 -2.1698,1.5349 -3.957,3.1242 -3.9688,3.5312 -0.008,0.27935 0.66438,0.75786 1.6875,1.3438 0.71836,-0.69866 1.8727,-1.6415 3.2188,-2.5938 5.3343,-3.7735 10.371,-10.132 13.719,-17.281 3.9748,-9.0146 4.0982,-20.947 -0.21875,-30.938 z m 72.656,22.812 c -11.179,-0.41851 -20.628,13.59 -24.531,20.125 -6.7174,11.359 -12.481,17.625 -19.188,20.906 -9.2702,4.7277 -14.657,0.7037 -24.344,3.3125 0.29417,0.76608 0.5958,1.5474 0.90625,2.3125 9.6868,-2.6088 15.074,1.3839 24.344,-3.3438 6.707,-3.2814 12.47,-9.5472 19.188,-20.906 5.2047,-8.7131 20.289,-30.708 36.156,-14.094 1.1374,1.642 2.1178,3.451 2.9688,5.375 -1.0248,-2.7961 -2.3286,-5.3786 -3.9062,-7.6562 -3.9668,-4.1535 -7.8674,-5.8918 -11.594,-6.0312 z m 25.938,13.625 c 0.95964,2.489 1.7966,5.0771 2.5,7.7812 0.9299,3.575 2.0228,11.45 2.4375,17.5 1.6282,23.754 -3.4286,40.732 -16,53.5 -15.189,15.427 -36.469,17.346 -50.688,4.5625 -3.7675,-3.3873 -6.7531,-7.6146 -8.9375,-12.531 2.2301,5.899 5.5087,10.915 9.8438,14.812 14.218,12.784 35.498,10.864 50.688,-4.5625 12.571,-12.768 17.659,-29.746 16.031,-53.5 -0.41468,-6.05 -1.5388,-13.925 -2.4688,-17.5 -0.92076,-3.5398 -2.0532,-6.8971 -3.4062,-10.062 z m -197.69,15.344 c 0.0665,0.32233 0.12265,0.66901 0.1875,1.0625 1.3577,7.4355 3.6468,15.263 6.7812,22.781 -2.6626,-6.81 -4.6543,-13.814 -5.875,-20.5 -0.34936,-2.1198 -0.73673,-3.1602 -1.0938,-3.3438 z m 63,13.812 c -3.1399,0.10905 -6.2854,0.47195 -9.3438,0.9375 0.19595,0.69309 0.47616,1.6753 0.65625,2.3125 14.057,-2.1738 30.383,-1.8124 36.781,12 -4.4163,-12.653 -16.102,-15.666 -28.094,-15.25 z m 44,9.8125 c 0.83176,2.1329 1.5977,4.3117 2.1875,6.5312 6.1502,23.565 -0.58137,45.098 -17.406,55.719 -8.7828,5.5443 -23.563,8.3692 -34.688,6.625 -18.787,-3.2795 -38.671,-17.978 -47.781,-34.844 -1.3766,-2.6646 -2.6158,-5.3612 -3.75,-8.0938 1.3634,3.5161 2.8972,6.9702 4.6562,10.375 9.11,16.865 28.995,31.564 47.781,34.844 11.124,1.7442 25.936,-1.0807 34.719,-6.625 16.825,-10.621 23.556,-32.154 17.406,-55.719 -0.80286,-3.0212 -1.9493,-5.9324 -3.125,-8.8125 z m 19.281,0.75 c 0.24336,0.66078 0.51881,1.3087 0.78125,1.9375 -0.18552,-0.51571 -0.35736,-1.0589 -0.53125,-1.5938 -0.0796,-0.14902 -0.16909,-0.25173 -0.25,-0.34375 z"
           fill="#ffffff"
           filter="url(#h)"
           opacity="0.8"
           id="path969" />
      </g>
    </g>
  </g>
</svg>
